<?xml version="1.0" encoding="UTF-8" standalone="no"?>
<!DOCTYPE svg PUBLIC "-//W3C//DTD SVG 1.1//EN" "http://www.w3.org/Graphics/SVG/1.1/DTD/svg11.dtd">
<svg width="100%" height="100%" viewBox="0 0 482 155" version="1.1" xmlns="http://www.w3.org/2000/svg" xmlns:xlink="http://www.w3.org/1999/xlink" xml:space="preserve" xmlns:serif="http://www.serif.com/" style="fill-rule:evenodd;clip-rule:evenodd;stroke-linejoin:round;stroke-miterlimit:2;">
    <g>
        <path d="M114.383,77.526C110.522,83.458 103.829,87.326 96.276,87.326C87.728,87.326 80.336,82.341 76.779,75.093L60.673,99.82C69.647,109.284 82.28,115.178 96.276,115.178C113.552,115.178 128.749,106.198 137.556,92.606L187.788,15.505L154.794,15.505L114.383,77.526ZM78.169,53.156C82.03,47.224 88.723,43.357 96.276,43.357C104.824,43.357 112.216,48.341 115.773,55.588L131.879,30.862C122.905,21.399 110.272,15.505 96.276,15.505C79,15.505 63.802,24.485 54.996,38.076L4.764,115.178L37.758,115.178L78.169,53.156ZM96.276,54.247C102.339,54.247 107.254,59.213 107.254,65.341C107.254,71.469 102.339,76.436 96.276,76.436C90.213,76.436 85.298,71.469 85.298,65.341C85.298,59.213 90.213,54.247 96.276,54.247" style="fill:rgb(122,0,209);fill-rule:nonzero;"/>
        <g>
            <g>
                <g transform="matrix(1,0,0,1,179.929,92.185)">
                    <g transform="matrix(65,0,0,65,0,0)">
                        <path d="M0.078,-0.657L0.294,-0.657C0.327,-0.657 0.357,-0.652 0.384,-0.642C0.411,-0.632 0.435,-0.618 0.455,-0.599C0.475,-0.58 0.491,-0.558 0.502,-0.533C0.513,-0.507 0.519,-0.478 0.519,-0.446C0.519,-0.413 0.513,-0.383 0.502,-0.356C0.491,-0.329 0.475,-0.307 0.455,-0.288C0.435,-0.269 0.411,-0.255 0.384,-0.245C0.357,-0.234 0.327,-0.229 0.294,-0.229L0.181,-0.229L0.181,-0L0.078,-0L0.078,-0.657ZM0.181,-0.566L0.181,-0.319L0.286,-0.319C0.325,-0.319 0.357,-0.33 0.38,-0.353C0.403,-0.376 0.414,-0.406 0.414,-0.444C0.414,-0.481 0.403,-0.511 0.38,-0.533C0.357,-0.555 0.325,-0.566 0.286,-0.566L0.181,-0.566Z" style="fill:rgb(35,40,45);fill-rule:nonzero;"/>
                    </g>
                </g>
                <g transform="matrix(1,0,0,1,212.949,92.185)">
                    <g transform="matrix(65,0,0,65,0,0)">
                        <path d="M0.02,-0L0.222,-0.657L0.33,-0.657L0.533,-0L0.426,-0L0.387,-0.132L0.16,-0.132L0.121,-0L0.02,-0ZM0.184,-0.221L0.363,-0.221L0.273,-0.526L0.184,-0.221Z" style="fill:rgb(35,40,45);fill-rule:nonzero;"/>
                    </g>
                    <g transform="matrix(65,0,0,65,35.295,0)">
                        <path d="M0.371,-0.463L0.371,-0.481C0.371,-0.51 0.361,-0.534 0.342,-0.553C0.323,-0.572 0.296,-0.581 0.262,-0.581C0.228,-0.581 0.202,-0.573 0.183,-0.558C0.164,-0.542 0.155,-0.521 0.155,-0.496C0.155,-0.479 0.161,-0.463 0.172,-0.448C0.183,-0.433 0.201,-0.422 0.224,-0.413L0.323,-0.375C0.343,-0.368 0.363,-0.359 0.382,-0.35C0.401,-0.34 0.419,-0.328 0.434,-0.314C0.449,-0.299 0.462,-0.282 0.471,-0.261C0.48,-0.24 0.485,-0.215 0.485,-0.186C0.485,-0.157 0.48,-0.13 0.469,-0.106C0.458,-0.082 0.444,-0.061 0.425,-0.044C0.405,-0.027 0.383,-0.013 0.356,-0.004C0.329,0.005 0.299,0.01 0.266,0.01C0.233,0.01 0.202,0.006 0.175,-0.003C0.148,-0.012 0.124,-0.024 0.105,-0.041C0.085,-0.058 0.069,-0.078 0.059,-0.101C0.048,-0.124 0.042,-0.151 0.042,-0.18L0.042,-0.199L0.143,-0.199L0.143,-0.176C0.143,-0.146 0.154,-0.122 0.175,-0.104C0.196,-0.085 0.225,-0.076 0.263,-0.076C0.302,-0.076 0.332,-0.085 0.353,-0.104C0.374,-0.123 0.384,-0.146 0.384,-0.175C0.384,-0.202 0.376,-0.224 0.36,-0.239C0.343,-0.254 0.321,-0.267 0.294,-0.277L0.197,-0.315C0.176,-0.323 0.157,-0.332 0.14,-0.343C0.123,-0.354 0.108,-0.366 0.096,-0.38C0.083,-0.394 0.074,-0.41 0.067,-0.428C0.059,-0.446 0.056,-0.466 0.056,-0.489C0.056,-0.514 0.061,-0.537 0.071,-0.559C0.08,-0.58 0.094,-0.599 0.112,-0.615C0.13,-0.631 0.152,-0.644 0.177,-0.653C0.202,-0.662 0.231,-0.667 0.262,-0.667C0.293,-0.667 0.322,-0.663 0.348,-0.654C0.374,-0.645 0.396,-0.633 0.415,-0.616C0.433,-0.599 0.447,-0.579 0.458,-0.556C0.468,-0.533 0.473,-0.506 0.473,-0.477L0.473,-0.463L0.371,-0.463Z" style="fill:rgb(35,40,45);fill-rule:nonzero;"/>
                    </g>
                    <g transform="matrix(65,0,0,65,69.68,0)">
                        <path d="M0.371,-0.463L0.371,-0.481C0.371,-0.51 0.361,-0.534 0.342,-0.553C0.323,-0.572 0.296,-0.581 0.262,-0.581C0.228,-0.581 0.202,-0.573 0.183,-0.558C0.164,-0.542 0.155,-0.521 0.155,-0.496C0.155,-0.479 0.161,-0.463 0.172,-0.448C0.183,-0.433 0.201,-0.422 0.224,-0.413L0.323,-0.375C0.343,-0.368 0.363,-0.359 0.382,-0.35C0.401,-0.34 0.419,-0.328 0.434,-0.314C0.449,-0.299 0.462,-0.282 0.471,-0.261C0.48,-0.24 0.485,-0.215 0.485,-0.186C0.485,-0.157 0.48,-0.13 0.469,-0.106C0.458,-0.082 0.444,-0.061 0.425,-0.044C0.405,-0.027 0.383,-0.013 0.356,-0.004C0.329,0.005 0.299,0.01 0.266,0.01C0.233,0.01 0.202,0.006 0.175,-0.003C0.148,-0.012 0.124,-0.024 0.105,-0.041C0.085,-0.058 0.069,-0.078 0.059,-0.101C0.048,-0.124 0.042,-0.151 0.042,-0.18L0.042,-0.199L0.143,-0.199L0.143,-0.176C0.143,-0.146 0.154,-0.122 0.175,-0.104C0.196,-0.085 0.225,-0.076 0.263,-0.076C0.302,-0.076 0.332,-0.085 0.353,-0.104C0.374,-0.123 0.384,-0.146 0.384,-0.175C0.384,-0.202 0.376,-0.224 0.36,-0.239C0.343,-0.254 0.321,-0.267 0.294,-0.277L0.197,-0.315C0.176,-0.323 0.157,-0.332 0.14,-0.343C0.123,-0.354 0.108,-0.366 0.096,-0.38C0.083,-0.394 0.074,-0.41 0.067,-0.428C0.059,-0.446 0.056,-0.466 0.056,-0.489C0.056,-0.514 0.061,-0.537 0.071,-0.559C0.08,-0.58 0.094,-0.599 0.112,-0.615C0.13,-0.631 0.152,-0.644 0.177,-0.653C0.202,-0.662 0.231,-0.667 0.262,-0.667C0.293,-0.667 0.322,-0.663 0.348,-0.654C0.374,-0.645 0.396,-0.633 0.415,-0.616C0.433,-0.599 0.447,-0.579 0.458,-0.556C0.468,-0.533 0.473,-0.506 0.473,-0.477L0.473,-0.463L0.371,-0.463Z" style="fill:rgb(35,40,45);fill-rule:nonzero;"/>
                    </g>
                    <g transform="matrix(65,0,0,65,104.065,0)">
                        <path d="M0.371,-0.463L0.371,-0.481C0.371,-0.51 0.361,-0.534 0.342,-0.553C0.323,-0.572 0.296,-0.581 0.262,-0.581C0.228,-0.581 0.202,-0.573 0.183,-0.558C0.164,-0.542 0.155,-0.521 0.155,-0.496C0.155,-0.479 0.161,-0.463 0.172,-0.448C0.183,-0.433 0.201,-0.422 0.224,-0.413L0.323,-0.375C0.343,-0.368 0.363,-0.359 0.382,-0.35C0.401,-0.34 0.419,-0.328 0.434,-0.314C0.449,-0.299 0.462,-0.282 0.471,-0.261C0.48,-0.24 0.485,-0.215 0.485,-0.186C0.485,-0.157 0.48,-0.13 0.469,-0.106C0.458,-0.082 0.444,-0.061 0.425,-0.044C0.405,-0.027 0.383,-0.013 0.356,-0.004C0.329,0.005 0.299,0.01 0.266,0.01C0.233,0.01 0.202,0.006 0.175,-0.003C0.148,-0.012 0.124,-0.024 0.105,-0.041C0.085,-0.058 0.069,-0.078 0.059,-0.101C0.048,-0.124 0.042,-0.151 0.042,-0.18L0.042,-0.199L0.143,-0.199L0.143,-0.176C0.143,-0.146 0.154,-0.122 0.175,-0.104C0.196,-0.085 0.225,-0.076 0.263,-0.076C0.302,-0.076 0.332,-0.085 0.353,-0.104C0.374,-0.123 0.384,-0.146 0.384,-0.175C0.384,-0.202 0.376,-0.224 0.36,-0.239C0.343,-0.254 0.321,-0.267 0.294,-0.277L0.197,-0.315C0.176,-0.323 0.157,-0.332 0.14,-0.343C0.123,-0.354 0.108,-0.366 0.096,-0.38C0.083,-0.394 0.074,-0.41 0.067,-0.428C0.059,-0.446 0.056,-0.466 0.056,-0.489C0.056,-0.514 0.061,-0.537 0.071,-0.559C0.08,-0.58 0.094,-0.599 0.112,-0.615C0.13,-0.631 0.152,-0.644 0.177,-0.653C0.202,-0.662 0.231,-0.667 0.262,-0.667C0.293,-0.667 0.322,-0.663 0.348,-0.654C0.374,-0.645 0.396,-0.633 0.415,-0.616C0.433,-0.599 0.447,-0.579 0.458,-0.556C0.468,-0.533 0.473,-0.506 0.473,-0.477L0.473,-0.463L0.371,-0.463Z" style="fill:rgb(35,40,45);fill-rule:nonzero;"/>
                    </g>
                    <g transform="matrix(65,0,0,65,138.45,0)">
                        <path d="M0.019,-0.657L0.45,-0.657L0.45,-0.564L0.286,-0.564L0.286,-0L0.183,-0L0.183,-0.564L0.019,-0.564L0.019,-0.657Z" style="fill:rgb(35,40,45);fill-rule:nonzero;"/>
                    </g>
                    <g transform="matrix(65,0,0,65,168.935,0)">
                        <path d="M0.181,-0.289L0.181,-0.093L0.475,-0.093L0.475,-0L0.078,-0L0.078,-0.657L0.466,-0.657L0.466,-0.564L0.181,-0.564L0.181,-0.38L0.44,-0.38L0.44,-0.289L0.181,-0.289Z" style="fill:rgb(35,40,45);fill-rule:nonzero;"/>
                    </g>
                    <g transform="matrix(65,0,0,65,202.735,0)">
                        <path d="M0.408,-0L0.305,-0.25C0.302,-0.249 0.3,-0.249 0.297,-0.249L0.181,-0.249L0.181,-0L0.078,-0L0.078,-0.657L0.295,-0.657C0.328,-0.657 0.358,-0.652 0.385,-0.643C0.412,-0.633 0.436,-0.619 0.456,-0.602C0.476,-0.585 0.492,-0.564 0.503,-0.539C0.514,-0.514 0.519,-0.487 0.519,-0.456C0.519,-0.413 0.509,-0.376 0.489,-0.345C0.468,-0.314 0.441,-0.29 0.406,-0.274L0.521,-0L0.408,-0ZM0.181,-0.566L0.181,-0.339L0.286,-0.339C0.325,-0.339 0.357,-0.349 0.38,-0.37C0.403,-0.391 0.414,-0.419 0.414,-0.455C0.414,-0.489 0.403,-0.516 0.38,-0.536C0.357,-0.556 0.325,-0.566 0.286,-0.566L0.181,-0.566Z" style="fill:rgb(35,40,45);fill-rule:nonzero;"/>
                    </g>
                </g>
            </g>
        </g>
    </g>
</svg>
